<?xml version="1.0" encoding="UTF-8" standalone="no"?>
<svg
  xmlns="http://www.w3.org/2000/svg"
  version="1.1"
  viewBox="0 0 20.032 7.4510002"
  height="7.4510002mm"
  width="20.032mm">
  <style type="text/css">
    .st0{fill:#E92626;}
  </style>
  <g transform="translate(0,-289.549)">
    <g transform="translate(-11.397909,279.44779)">
      <path
        class="st0"
        d="m 16.223908,14.313709 v 0.994833 q 0,2.243667 -2.413,2.243667 -2.412999,0 -2.412999,-2.243667 v -2.963333 q 0,-2.243666 2.412999,-2.243666 2.0955,0 2.360084,1.756833 0.01058,0.0635 0.01058,0.169333 0,0.306917 -0.169333,0.455084 -0.169334,0.148166 -0.4445,0.148166 -0.518584,0 -0.60325,-0.518583 -0.07408,-0.497417 -0.34925,-0.709083 -0.275167,-0.22225 -0.804334,-0.22225 -0.624416,0 -0.92075,0.3175 -0.28575,0.3175 -0.28575,1.058333 v 2.518833 q 0,0.751417 0.296334,1.0795 0.296333,0.3175 0.931333,0.3175 0.635,0 0.931333,-0.3175 0.296334,-0.328083 0.296334,-1.0795 v -0.306917 q 0,-0.127 -0.04233,-0.169333 -0.04233,-0.04233 -0.15875,-0.04233 h -0.804333 q -0.243417,0 -0.391583,-0.148167 -0.148167,-0.148167 -0.148167,-0.391583 0,-0.254 0.148167,-0.391584 0.148166,-0.148166 0.391583,-0.148166 h 1.3335 q 0.836083,0 0.836083,0.836083 z"
        style="stroke-width:0.26458332" />
      <path
        class="st0"
        d="m 22.592925,12.461626 v 2.7305 q 0,2.360083 -2.465916,2.360083 -2.465917,0 -2.465917,-2.360083 v -2.7305 q 0,-2.360083 2.465917,-2.360083 2.465916,0 2.465916,2.360083 z m -1.2065,2.518833 v -2.307166 q 0,-0.814917 -0.306916,-1.153584 -0.296334,-0.338666 -0.9525,-0.338666 -0.656167,0 -0.963084,0.338666 -0.296333,0.338667 -0.296333,1.153584 v 2.307166 q 0,0.814917 0.296333,1.153583 0.306917,0.338667 0.963084,0.338667 0.656166,0 0.9525,-0.338667 0.306916,-0.338666 0.306916,-1.153583 z"
        style="stroke-width:0.26458332" />
      <path
        class="st0"
        d="m 27.094314,15.160376 v -4.370917 q 0,-0.645583 0.60325,-0.645583 0.60325,0 0.60325,0.645583 v 4.582583 q 0,2.180167 -2.3495,2.180167 -2.3495,0 -2.3495,-2.180167 v -0.232833 q 0,-0.645583 0.60325,-0.645583 0.60325,0 0.60325,0.645583 v 0.02117 q 0,0.709083 0.275167,1.016 0.275166,0.296333 0.867833,0.296333 0.592667,0 0.867833,-0.296333 0.275167,-0.306917 0.275167,-1.016 z"
        style="stroke-width:0.26458332" />
      <path
        class="st0"
        d="m 30.223674,16.864292 v -6.074833 q 0,-0.645583 0.60325,-0.645583 0.60325,0 0.60325,0.645583 v 6.074833 q 0,0.645584 -0.60325,0.645584 -0.60325,0 -0.60325,-0.645584 z"
        style="stroke-width:0.26458332" />
    </g>
  </g>
</svg>
