<?xml version="1.0" encoding="UTF-8" standalone="no"?>
<svg
   xmlns:dc="http://purl.org/dc/elements/1.1/"
   xmlns:cc="http://creativecommons.org/ns#"
   xmlns:rdf="http://www.w3.org/1999/02/22-rdf-syntax-ns#"
   xmlns:svg="http://www.w3.org/2000/svg"
   xmlns="http://www.w3.org/2000/svg"
   id="svg22"
   version="1.1"
   height="470"
   width="772">
  <metadata
     id="metadata28">
    <rdf:RDF>
      <cc:Work
         rdf:about="">
        <dc:format>image/svg+xml</dc:format>
        <dc:type
           rdf:resource="http://purl.org/dc/dcmitype/StillImage" />
        <dc:title></dc:title>
      </cc:Work>
    </rdf:RDF>
  </metadata>
  <defs
     id="defs26" />
  <path
     id="path4"
     d="M254 4.42438C217.363 9.23706 183.483 20.3955 152 40.2284C132.469 52.5318 114.938 68.2238 100.25 86C49.8533 146.994 35.1848 234.588 61.6921 309C77.9874 354.744 109 395.369 149 422.975C196.462 455.73 255.514 465.723 312 457.715C362.932 450.493 413.25 425.285 447.83 387C482.728 348.364 503 295.063 503 243C503 204.522 495.661 165.38 473.656 133C468.749 125.779 463.208 119.137 457 113.004C453.576 109.621 449.999 105.918 445.001 105.218C437.682 104.194 436.559 110.951 440.317 116C448.322 126.753 457.214 136.052 463.691 148C481.26 180.406 483.466 216.872 473.848 252C449.564 340.696 357.599 406.137 266 396.831C182.772 388.375 113.34 316.657 113.34 232C113.34 204.617 121.315 176.969 134.309 153C144.032 135.063 158.278 118.559 174 105.615C198.399 85.527 228.68 73.0434 260 69.2855C280.095 66.8745 305.132 74.6995 317.095 53C325.769 37.2653 319.31 15.8825 303 8.32407C297.052 5.5679 290.424 5.38214 284 4.91125C274.095 4.18518 263.93 3.1199 254 4.42438z"
     style="fill:#75b000; stroke:none;" />
  <path
     id="path6"
     d="M475 4.42438C453.809 7.21487 433.242 10.4814 413 17.6921C389.986 25.8904 369.005 39.4203 350 54.6003C328.247 71.975 309.609 90.6611 297.259 116C283.487 144.258 279.029 174.072 276.91 205C274.158 245.192 280.92 287.229 295.05 325C298.552 334.36 302.958 343.809 308.721 351.999C311.706 356.24 314.514 359.674 320 359.952C324.377 360.174 336.22 358.989 334.288 352.024C333.095 347.723 327.239 344.366 324.465 340.999C318.807 334.133 314.369 326.164 310.873 318C301.72 296.626 298.493 272.973 296.91 250C295.567 230.498 295.085 210.151 299.895 191C304.262 173.613 310.758 153.798 321.039 139C330.857 124.869 343.954 114.046 356 102C360.695 97.3054 365.303 92.4662 369.103 87C371.34 83.7837 373.746 78.8334 378.004 77.9707C382.917 76.9752 385.808 82.9276 388.375 85.9846C392.756 91.2005 400.931 96.5674 408 94.0023C421.022 89.2774 432.544 81.2115 446 77.0255C486.752 64.3481 530.961 66.6974 569 86.7809C586.849 96.2047 602.334 109.727 615.421 125C628.88 140.709 640.555 157.541 647.936 177C674.14 246.084 645.795 322.301 588 365.625C563.874 383.71 535.82 391.074 507 397.921C494.751 400.832 484.168 395.514 473.04 404.529C451.833 421.71 463.409 456.533 489 460.561C494.762 461.468 500.252 460.072 506 460.004C528.146 459.74 549.08 456.094 570 448.691C594.425 440.049 617.72 427.751 638 411.551C688.098 371.532 717.56 310.528 721.911 247C728.807 146.293 666.373 48.5749 570 16.3333C540.261 6.38419 506.422 0.28656 475 4.42438M350 137C367.203 136.953 395.628 134.94 404 117C397.276 114.042 393.105 105.515 385.999 104.228C383.237 103.728 379.671 103.778 377.39 105.603C373.573 108.657 371.147 114.312 367.829 118C362.296 124.151 353.617 129.577 350 137z"
     style="fill:#b0eb00; stroke:none;" />
  <path
     id="path8"
     d="M403 120.068C399.929 121.449 397.711 124.427 395 126.363C390.401 129.647 384.48 132.695 379 134.098C372.213 135.836 364.961 136.46 358 137.074C354.112 137.417 349.439 137.046 346 139.072C338.176 143.681 332.155 152.362 327.604 160C315.451 180.398 310.59 206.502 310.015 230C309.294 259.42 313.016 292.031 327.873 318C339.036 337.513 357.986 348.419 380 339.796C396.621 333.285 407.22 319.281 418.41 306C446.498 272.662 467.506 232.616 462.83 188C460.341 164.25 446.58 139.999 426 127.464C420.68 124.223 409.436 117.173 403 120.068z"
     style="fill:#e92626; stroke:none;" />
  <path
     id="path10"
     d="M395 126L396 127L395 126z"
     style="fill:#cf7e14; stroke:none;" />
</svg>
