<?xml version="1.0" encoding="UTF-8" standalone="no"?>
<svg
  xmlns="http://www.w3.org/2000/svg"
  version="1.1"
  viewBox="0 0 772 770"
  height="770"
  width="772">
  <style type="text/css">
    .st0{fill:#E92626;}
  </style>
  <g transform="translate(0,300)">
    <g transform="translate(0,-288)">
      <path
        d="M 254,4.42438 C 217.363,9.23706 183.483,20.3955 152,40.2284 132.469,52.5318 114.938,68.2238 100.25,86 49.8533,146.994 35.1848,234.588 61.6921,309 77.9874,354.744 109,395.369 149,422.975 196.462,455.73 255.514,465.723 312,457.715 362.932,450.493 413.25,425.285 447.83,387 482.728,348.364 503,295.063 503,243 c 0,-38.478 -7.339,-77.62 -29.344,-110 -4.907,-7.221 -10.448,-13.863 -16.656,-19.996 -3.424,-3.383 -7.001,-7.086 -11.999,-7.786 -7.319,-1.024 -8.442,5.733 -4.684,10.782 8.005,10.753 16.897,20.052 23.374,32 17.569,32.406 19.775,68.872 10.157,104 C 449.564,340.696 357.599,406.137 266,396.831 182.772,388.375 113.34,316.657 113.34,232 c 0,-27.383 7.975,-55.031 20.969,-79 C 144.032,135.063 158.278,118.559 174,105.615 198.399,85.527 228.68,73.0434 260,69.2855 280.095,66.8745 305.132,74.6995 317.095,53 325.769,37.2653 319.31,15.8825 303,8.32407 297.052,5.5679 290.424,5.38214 284,4.91125 274.095,4.18518 263.93,3.1199 254,4.42438 Z"
        style="fill:#75b000;stroke:none" />
      <path
        d="M 475,4.42438 C 453.809,7.21487 433.242,10.4814 413,17.6921 389.986,25.8904 369.005,39.4203 350,54.6003 328.247,71.975 309.609,90.6611 297.259,116 c -13.772,28.258 -18.23,58.072 -20.349,89 -2.752,40.192 4.01,82.229 18.14,120 3.502,9.36 7.908,18.809 13.671,26.999 2.985,4.241 5.793,7.675 11.279,7.953 4.377,0.222 16.22,-0.963 14.288,-7.928 -1.193,-4.301 -7.049,-7.658 -9.823,-11.025 -5.658,-6.866 -10.096,-14.835 -13.592,-22.999 -9.153,-21.374 -12.38,-45.027 -13.963,-68 -1.343,-19.502 -1.825,-39.849 2.985,-59 4.367,-17.387 10.863,-37.202 21.144,-52 9.818,-14.131 22.915,-24.954 34.961,-37 4.695,-4.6946 9.303,-9.5338 13.103,-15 2.237,-3.2163 4.643,-8.1666 8.901,-9.0293 4.913,-0.9955 7.804,4.9569 10.371,8.0139 4.381,5.2159 12.556,10.5828 19.625,8.0177 13.022,-4.7249 24.544,-12.7908 38,-16.9768 40.752,-12.6774 84.961,-10.3281 123,9.7554 17.849,9.4238 33.334,22.9461 46.421,38.2191 13.459,15.709 25.134,32.541 32.515,52 26.204,69.084 -2.141,145.301 -59.936,188.625 -24.126,18.085 -52.18,25.449 -81,32.296 -12.249,2.911 -22.832,-2.407 -33.96,6.608 -21.207,17.181 -9.631,52.004 15.96,56.032 5.762,0.907 11.252,-0.489 17,-0.557 22.146,-0.264 43.08,-3.91 64,-11.313 24.425,-8.642 47.72,-20.94 68,-37.14 C 688.098,371.532 717.56,310.528 721.911,247 728.807,146.293 666.373,48.5749 570,16.3333 540.261,6.38419 506.422,0.28656 475,4.42438 M 350,137 c 17.203,-0.047 45.628,-2.06 54,-20 -6.724,-2.958 -10.895,-11.485 -18.001,-12.772 -2.762,-0.5 -6.328,-0.45 -8.609,1.375 -3.817,3.054 -6.243,8.709 -9.561,12.397 -5.533,6.151 -14.212,11.577 -17.829,19 z"
        style="fill:#b0eb00;stroke:none" />
      <path
        class="st0"
        d="m 403,120.068 c -3.071,1.381 -5.289,4.359 -8,6.295 -4.599,3.284 -10.52,6.332 -16,7.735 -6.787,1.738 -14.039,2.362 -21,2.976 -3.888,0.343 -8.561,-0.028 -12,1.998 -7.824,4.609 -13.845,13.29 -18.396,20.928 -12.153,20.398 -17.014,46.502 -17.589,70 -0.721,29.42 3.001,62.031 17.858,88 11.163,19.513 30.113,30.419 52.127,21.796 16.621,-6.511 27.22,-20.515 38.41,-33.796 28.088,-33.338 49.096,-73.384 44.42,-118 -2.489,-23.75 -16.25,-48.001 -36.83,-60.536 -5.32,-3.241 -16.564,-10.291 -23,-7.396 z"
      />
      <path
        d="m 395,126 1,1 z"
        style="fill:#cf7e14;stroke:none" />
      <g transform="matrix(36.346707,0,0,36.346707,-388.60311,105.07203)">
        <path
          class="st0"
          d="m 16.223908,14.313709 v 0.994833 q 0,2.243667 -2.413,2.243667 -2.412999,0 -2.412999,-2.243667 v -2.963333 q 0,-2.243666 2.412999,-2.243666 2.0955,0 2.360084,1.756833 0.01058,0.0635 0.01058,0.169333 0,0.306917 -0.169333,0.455084 -0.169334,0.148166 -0.4445,0.148166 -0.518584,0 -0.60325,-0.518583 -0.07408,-0.497417 -0.34925,-0.709083 -0.275167,-0.22225 -0.804334,-0.22225 -0.624416,0 -0.92075,0.3175 -0.28575,0.3175 -0.28575,1.058333 v 2.518833 q 0,0.751417 0.296334,1.0795 0.296333,0.3175 0.931333,0.3175 0.635,0 0.931333,-0.3175 0.296334,-0.328083 0.296334,-1.0795 v -0.306917 q 0,-0.127 -0.04233,-0.169333 -0.04233,-0.04233 -0.15875,-0.04233 h -0.804333 q -0.243417,0 -0.391583,-0.148167 -0.148167,-0.148167 -0.148167,-0.391583 0,-0.254 0.148167,-0.391584 0.148166,-0.148166 0.391583,-0.148166 h 1.3335 q 0.836083,0 0.836083,0.836083 z"
          style="stroke-width:0.26458332" />
        <path
          class="st0"
          d="m 22.592925,12.461626 v 2.7305 q 0,2.360083 -2.465916,2.360083 -2.465917,0 -2.465917,-2.360083 v -2.7305 q 0,-2.360083 2.465917,-2.360083 2.465916,0 2.465916,2.360083 z m -1.2065,2.518833 v -2.307166 q 0,-0.814917 -0.306916,-1.153584 -0.296334,-0.338666 -0.9525,-0.338666 -0.656167,0 -0.963084,0.338666 -0.296333,0.338667 -0.296333,1.153584 v 2.307166 q 0,0.814917 0.296333,1.153583 0.306917,0.338667 0.963084,0.338667 0.656166,0 0.9525,-0.338667 0.306916,-0.338666 0.306916,-1.153583 z"
          style="stroke-width:0.26458332" />
        <path
          class="st0"
          d="m 27.094314,15.160376 v -4.370917 q 0,-0.645583 0.60325,-0.645583 0.60325,0 0.60325,0.645583 v 4.582583 q 0,2.180167 -2.3495,2.180167 -2.3495,0 -2.3495,-2.180167 v -0.232833 q 0,-0.645583 0.60325,-0.645583 0.60325,0 0.60325,0.645583 v 0.02117 q 0,0.709083 0.275167,1.016 0.275166,0.296333 0.867833,0.296333 0.592667,0 0.867833,-0.296333 0.275167,-0.306917 0.275167,-1.016 z"
          style="stroke-width:0.26458332" />
        <path
          class="st0"
          d="m 30.223674,16.864292 v -6.074833 q 0,-0.645583 0.60325,-0.645583 0.60325,0 0.60325,0.645583 v 6.074833 q 0,0.645584 -0.60325,0.645584 -0.60325,0 -0.60325,-0.645584 z"
          style="stroke-width:0.26458332" />
      </g>
    </g>
  </g>
</svg>
